<?xml version="1.0" encoding="utf-8"?>
<svg width="509.07242px" height="496px" viewBox="0 0 509.07242 496" version="1.1" xmlns:xlink="http://www.w3.org/1999/xlink" xmlns="http://www.w3.org/2000/svg">
  <path d="M0 0L509 0L509 496L0 496L0 0L0 0Z" id="Rectangle" fill="none" fill-rule="evenodd" stroke="none" />
  <path d="M0.0195313 248C0.0195313 115.452 107.471 8 240.02 8C372.568 8 480.02 115.452 480.02 248C480.02 380.548 372.568 488 240.02 488C107.471 488 0.0195313 380.548 0.0195313 248L0.0195313 248Z" id="Ellipse" fill="#000000" fill-rule="evenodd" stroke="none" />
  <path d="M479.486 113.431C454.109 113.415 419.71 115.349 364.679 143.062C354.274 148.302 343.066 154.754 331.732 161.772C333.969 155.317 336.671 145.002 333.99 138.426C331.315 131.822 326.484 130.644 326.484 130.644C326.484 130.644 337.283 121.335 339.897 116.382C344.331 107.979 346.526 100.223 341.938 93.3397C337.046 85.9862 319.862 84.9298 290.602 98.5327C273.366 106.547 248.519 123.906 226.456 157.646C214.939 175.287 210.065 191.909 208.019 203.482C207.626 202.578 207.279 201.674 206.985 200.775C197.341 171.288 175.085 159.477 160.159 155.672C131.82 148.38 113.28 159.242 106.344 164.527C102.794 164.827 56.5705 168.8 56.0045 172.172C55.6765 174.268 73.2295 187.042 73.2295 187.042L85.9525 194.271L99.6015 201.354C102.598 208.818 107.574 221.606 107.452 223.893C107.42 224.5 107.004 225.676 106.37 227.469C103.588 235.335 96.6125 255.06 99.4605 290.528C102.289 325.517 133.203 369.475 180.374 388.704C227.544 407.932 246.67 407.559 246.67 407.559C246.67 407.559 257.872 452.474 261.717 453.114C265.551 453.79 275.323 447.441 283.136 446.221C295.336 444.343 319.493 440.328 337.271 427.235C367.332 405.113 368.078 386.325 376.174 376.915C378.023 374.769 379.808 372.812 381.434 371.028C385.881 366.152 389.149 362.567 389.341 359.935C389.602 356.34 371.39 349.082 360.25 345.551C352.126 342.984 342.589 339.727 335.186 336.652C331.898 335.286 328.454 332.865 325.897 330.847C339.856 324.865 357.302 315.205 362.468 304.389C366.823 295.263 366.954 289.684 366.954 289.684C366.954 289.684 388.951 278.306 394.532 270.717C400.14 263.174 401.651 255.353 401.651 255.353C401.651 255.353 428.44 243.699 443.39 233.591C456.863 224.491 467.178 211.893 470.162 205.558C472.777 200.021 473.478 194.204 473.478 194.204C473.478 194.204 490.187 180.006 495.982 170.603C499.707 164.695 498.856 160.453 497.506 157.947C497.482 157.749 497.424 157.577 497.327 157.434C495.549 154.817 491.89 151.116 482.862 153.626C489.372 149.945 501.281 143.138 506.197 134.079C516.068 115.694 492.83 113.431 479.486 113.431L479.486 113.431Z" id="Vector-shape" fill="#FFFFFF" fill-rule="evenodd" stroke="#000000" stroke-width="1" />
</svg>